<svg viewBox="0 -7 96 96" width="25px" height="25px" xmlns="http://www.w3.org/2000/svg" xmlns:xlink="http://www.w3.org/1999/xlink" xml:space="preserve" overflow="hidden"><defs><clipPath id="clip0"><rect x="190" y="189" width="96" height="96"/></clipPath></defs><g clip-path="url(#clip0)" transform="translate(-190 -189)"><path d="M237.986 199C217.011 199 200.007 216.004 200.007 236.979 200.007 257.954 217.011 274.958 237.986 274.958 258.961 274.958 275.965 257.954 275.965 236.979 275.965 236.978 275.965 236.976 275.965 236.975 275.972 216.009 258.982 199.007 238.016 199 238.006 199 237.996 199 237.986 199ZM256.605 240.36 241.367 240.36 241.367 255.594 234.605 255.594 234.605 240.356 219.367 240.356 219.367 233.594 234.605 233.594 234.605 218.356 241.367 218.356 241.367 233.594 256.605 233.594Z" fill="#FFFFFF"/></g></svg>
