<svg viewBox="0 0 538 505" height="25px" width="25px" xmlns="http://www.w3.org/2000/svg" xmlns:xlink="http://www.w3.org/1999/xlink" xml:space="preserve" overflow="hidden"><defs><clipPath id="clip0"><rect x="1493" y="739" width="538" height="505"/></clipPath></defs><g clip-path="url(#clip0)" transform="translate(-1493 -739)"><path d="M1566 805.742C1573.12 770.575 1607.4 747.835 1642.57 754.953 1677.74 762.07 1700.47 796.349 1693.36 831.517 1686.24 866.684 1651.96 889.424 1616.79 882.306 1581.63 875.189 1558.89 840.91 1566 805.742Z" stroke="#FFFFFF" stroke-width="27.5" stroke-linejoin="round" stroke-miterlimit="10" fill="none" fill-rule="evenodd"/><path d="M1890.93 954.096C1878.4 920.472 1895.51 883.061 1929.13 870.536 1962.75 858.011 2000.17 875.114 2012.69 908.738 2025.22 942.362 2008.11 979.773 1974.49 992.298 1940.86 1004.82 1903.45 987.719 1890.93 954.096Z" stroke="#FFFFFF" stroke-width="27.5" stroke-linejoin="round" stroke-miterlimit="10" fill="none" fill-rule="evenodd"/><path d="M1706 977C1706 941.101 1735.1 912 1771 912 1806.9 912 1836 941.101 1836 977 1836 1012.9 1806.9 1042 1771 1042 1735.1 1042 1706 1012.9 1706 977Z" stroke="#FFFFFF" stroke-width="27.5" stroke-linejoin="round" stroke-miterlimit="10" fill="none" fill-rule="evenodd"/><path d="M1507 1165C1507 1129.1 1536.1 1100 1572 1100 1607.9 1100 1637 1129.1 1637 1165 1637 1200.9 1607.9 1230 1572 1230 1536.1 1230 1507 1200.9 1507 1165Z" stroke="#FFFFFF" stroke-width="27.5" stroke-linejoin="round" stroke-miterlimit="10" fill="none" fill-rule="evenodd"/><path d="M1843.19 1114.2C1847.07 1078.53 1879.12 1052.75 1914.79 1056.63 1950.46 1060.5 1976.24 1092.56 1972.37 1128.23 1968.5 1163.9 1936.44 1189.68 1900.77 1185.8 1865.1 1181.93 1839.32 1149.87 1843.19 1114.2Z" stroke="#FFFFFF" stroke-width="27.5" stroke-linejoin="round" stroke-miterlimit="10" fill="none" fill-rule="evenodd"/><path d="M1666 873 1725.68 931.649" stroke="#FFFFFF" stroke-width="27.5" stroke-linejoin="round" stroke-miterlimit="10" fill="none" fill-rule="evenodd"/><path d="M0 0 54.7485 23.2606" stroke="#FFFFFF" stroke-width="27.5" stroke-linejoin="round" stroke-miterlimit="10" fill="none" fill-rule="evenodd" transform="matrix(1 0 0 -1 1836 977.26)"/><path d="M1817 1023 1866.92 1070.29" stroke="#FFFFFF" stroke-width="27.5" stroke-linejoin="round" stroke-miterlimit="10" fill="none" fill-rule="evenodd"/><path d="M0 0 107.189 95.5134" stroke="#FFFFFF" stroke-width="27.5" stroke-linejoin="round" stroke-miterlimit="10" fill="none" fill-rule="evenodd" transform="matrix(1 0 0 -1 1618 1118.51)"/></g></svg>
