<svg width="25px" height="25px" viewBox="0 0 96 96" xmlns="http://www.w3.org/2000/svg" xmlns:xlink="http://www.w3.org/1999/xlink" xml:space="preserve" overflow="hidden"><defs><clipPath id="clip0"><rect x="426" y="380" width="96" height="96"/></clipPath></defs><g clip-path="url(#clip0)" transform="translate(-426 -380)"><path d="M504 400 487 400 487 395C487 391.1 483.9 388 480 388L468 388C464.1 388 461 391.1 461 395L461 400 444 400C441.8 400 440 401.8 440 404L440 408 508 408 508 404C508 401.8 506.2 400 504 400ZM467 395C467 394.4 467.4 394 468 394L480 394C480.6 394 481 394.4 481 395L481 400 467 400 467 395Z" fill="#FFFFFF"/><path d="M446 464C446 466.2 447.8 468 450 468L498 468C500.2 468 502 466.2 502 464L502 412 446 412 446 464ZM487 418 493 418 493 462 487 462 487 418ZM471 418 477 418 477 462 471 462 471 418ZM455 418 461 418 461 462 455 462 455 418Z" fill="#FFFFFF"/></g></svg>
