<svg width="27px" viewBox="0 -10 96 96" xmlns="http://www.w3.org/2000/svg" xmlns:xlink="http://www.w3.org/1999/xlink" xml:space="preserve" overflow="hidden"><defs><clipPath id="clip0"><rect x="865" y="325" width="96" height="96"/></clipPath></defs><g clip-path="url(#clip0)" transform="translate(-865 -325)"><path d="M955.6 405 916.5 337C915.437 335.095 913.03 334.412 911.124 335.476 910.485 335.833 909.957 336.36 909.6 337L870.4 405C869.304 406.927 869.977 409.379 871.905 410.475 872.513 410.821 873.201 411.002 873.9 411L952.1 411C954.317 411.005 956.12 409.212 956.125 406.995 956.127 406.296 955.946 405.608 955.6 405ZM953.839 408.019C953.48 408.637 952.815 409.012 952.1 409L873.9 409C873.185 409.013 872.519 408.637 872.161 408.018 871.788 407.4 871.777 406.628 872.133 406L911.348 337.971C911.877 337.032 913.067 336.699 914.006 337.228 914.328 337.408 914.591 337.676 914.766 338L953.852 405.971C954.219 406.606 954.214 407.389 953.839 408.019Z" stroke="#540B0E" stroke-width="6" fill="#540B0E"/><path d="M913 398.98C912.395 398.998 911.812 398.758 911.394 398.32 910.963 397.889 910.727 397.3 910.744 396.691 910.719 396.083 910.953 395.494 911.387 395.068 911.816 394.646 912.398 394.417 913 394.436 913.614 394.421 914.208 394.65 914.652 395.074 915.1 395.49 915.345 396.08 915.322 396.691 915.337 397.303 915.091 397.893 914.646 398.314 914.212 398.753 913.617 398.993 913 398.98Z" stroke="#540B0E" stroke-width="6" fill="#540B0E"/><path d="M911.901 387.6 911.578 355.787 914.289 355.787 913.966 387.6 911.901 387.6Z" stroke="#540B0E" stroke-width="6" fill="#540B0E"/></g></svg>