<svg width="22px" height="22px" viewBox="0 -10 131 131" xmlns="http://www.w3.org/2000/svg" xmlns:xlink="http://www.w3.org/1999/xlink" xml:space="preserve" overflow="hidden"><defs><clipPath id="clip0"><rect x="588" y="154" width="131" height="131"/></clipPath></defs><g clip-path="url(#clip0)" transform="translate(-588 -154)"><path d="M73.448 140.364C55.0485 138.185 39.0798 126.891 30.6877 110.122 25.9654 100.686 23.9121 88.4592 25.3554 78.3688 27.708 61.9222 36.3912 48.2757 50.3854 39.031 57.3198 34.4503 65.0188 31.7889 74.5398 30.6814 79.9317 30.0542 80.9226 30.056 86.1451 30.7026 92.1952 31.4517 98.2082 33.0842 103.12 35.3115 104.761 36.0553 106.443 36.6639 106.857 36.6639 107.272 36.6639 109.817 34.3879 112.511 31.6062 115.206 28.8245 117.523 26.6613 117.661 26.7991 117.799 26.937 118.067 28.9673 118.256 31.3109 118.446 33.6546 118.921 39.0112 119.313 43.2145 120.554 56.5455 120.737 59.1478 120.453 59.4133 120.107 59.7356 97.5671 60.6972 90.5567 60.6885L85.394 60.6824 90.8842 54.8122C93.904 51.5837 96.3718 48.7835 96.3679 48.5892 96.3447 47.349 92.6743 45.9013 86.6137 44.7414 75.711 42.6556 62.8938 46.2092 53.5148 53.9178 47.6625 58.7277 42.108 67.5041 39.9742 75.3119 38.586 80.3916 38.5677 89.9047 39.9358 95.3137 45.2838 116.458 65.8459 130.08 86.8784 126.413 95.9072 124.838 102.398 121.454 109.086 114.833 113.996 109.972 116.385 106.487 118.692 100.821 119.891 97.8741 121.493 91.1148 121.787 87.7579L121.922 86.2294 128.046 86.1089C135.937 85.9539 135.765 85.8355 135.19 91.0331 133.717 104.361 128.368 115.486 118.988 124.731 109.734 133.853 99.1082 138.953 86.3307 140.406 80.0331 141.122 79.84 141.122 73.448 140.364Z" fill="#FFFFFF" transform="matrix(1 0 0 1.00504 574.374 134.367)"/></g></svg>