<svg viewBox="0 -75 500 500"  width="25px" height="25px" xmlns="http://www.w3.org/2000/svg" xmlns:xlink="http://www.w3.org/1999/xlink" xml:space="preserve" overflow="hidden"><defs><clipPath id="clip0"><rect x="695" y="1012" width="561" height="561"/></clipPath><clipPath id="clip1"><rect x="849" y="1134" width="255" height="255"/></clipPath><clipPath id="clip2"><rect x="849" y="1134" width="255" height="255"/></clipPath><clipPath id="clip3"><rect x="849" y="1134" width="255" height="255"/></clipPath></defs><g clip-path="url(#clip0)" transform="translate(-695 -1012)"><path d="M1139.12 1362.62 811.875 1362.62 811.875 1163.94 1139.12 1163.94 1139.12 1362.62ZM1174.19 1152.25C1174.19 1139.39 1163.67 1128.88 1150.81 1128.88L800.188 1128.88C787.331 1128.88 776.813 1139.39 776.813 1152.25L776.813 1397.69 1174.19 1397.69 1174.19 1152.25Z" fill="#FFFFFF"/><path d="M1010.56 1421.06 1010.56 1426.91C1010.56 1430.41 1008.23 1432.75 1004.72 1432.75L946.281 1432.75C942.775 1432.75 940.438 1430.41 940.438 1426.91L940.438 1421.06 706.688 1421.06 706.688 1432.75C706.688 1445.61 717.206 1456.12 730.063 1456.12L1220.94 1456.12C1233.79 1456.12 1244.31 1445.61 1244.31 1432.75L1244.31 1421.06 1010.56 1421.06Z" fill="#FFFFFF"/><g clip-path="url(#clip1)"><g clip-path="url(#clip2)"><g clip-path="url(#clip3)"><path d="M929.38 1320.85 869.532 1261 928.058 1202.47 939.276 1213.69 891.968 1261 940.599 1309.63 929.38 1320.85Z" fill="#FFFFFF"/><path d="M1021.3 1320.85 1010.08 1309.63 1058.71 1261 1011.4 1213.69 1022.62 1202.47 1081.15 1261 1021.3 1320.85Z" fill="#FFFFFF"/><path d="M989.229 1261C989.229 1268.31 983.306 1274.23 976 1274.23 968.694 1274.23 962.771 1268.31 962.771 1261 962.771 1253.69 968.694 1247.77 976 1247.77 983.306 1247.77 989.229 1253.69 989.229 1261Z" fill="#FFFFFF"/><path d="M946.896 1261C946.896 1268.31 940.973 1274.23 933.667 1274.23 926.36 1274.23 920.438 1268.31 920.438 1261 920.438 1253.69 926.36 1247.77 933.667 1247.77 940.973 1247.77 946.896 1253.69 946.896 1261Z" fill="#FFFFFF"/><path d="M1031.56 1261C1031.56 1268.31 1025.64 1274.23 1018.33 1274.23 1011.03 1274.23 1005.1 1268.31 1005.1 1261 1005.1 1253.69 1011.03 1247.77 1018.33 1247.77 1025.64 1247.77 1031.56 1253.69 1031.56 1261Z" fill="#FFFFFF"/></g></g></g></g></svg>
